<svg xmlns="http://www.w3.org/2000/svg" xmlns:xlink="http://www.w3.org/1999/xlink" width="580" height="525"><defs><filter id="c" width="126.9%" height="129.8%" x="-13.5%" y="-10.6%" filterUnits="objectBoundingBox"><feOffset dy="10" in="SourceAlpha" result="shadowOffsetOuter1"/><feGaussianBlur in="shadowOffsetOuter1" result="shadowBlurOuter1" stdDeviation="10"/><feColorMatrix in="shadowBlurOuter1" values="0 0 0 0 0.311765745 0 0 0 0 0.336514196 0 0 0 0 0.386011096 0 0 0 0.03 0"/></filter><filter id="e" width="126.9%" height="129.8%" x="-13.5%" y="-10.6%" filterUnits="objectBoundingBox"><feOffset dy="10" in="SourceAlpha" result="shadowOffsetOuter1"/><feGaussianBlur in="shadowOffsetOuter1" result="shadowBlurOuter1" stdDeviation="10"/><feColorMatrix in="shadowBlurOuter1" values="0 0 0 0 0.311765745 0 0 0 0 0.336514196 0 0 0 0 0.386011096 0 0 0 0.03 0"/></filter><filter id="i" width="126.9%" height="129.8%" x="-13.5%" y="-10.6%" filterUnits="objectBoundingBox"><feOffset dy="10" in="SourceAlpha" result="shadowOffsetOuter1"/><feGaussianBlur in="shadowOffsetOuter1" result="shadowBlurOuter1" stdDeviation="10"/><feColorMatrix in="shadowBlurOuter1" values="0 0 0 0 0.311765745 0 0 0 0 0.336514196 0 0 0 0 0.386011096 0 0 0 0.03 0"/></filter><rect id="d" width="260" height="235" x="0" y="0" rx="4"/><rect id="f" width="260" height="235" x="0" y="0" rx="4"/><rect id="j" width="260" height="235" x="0" y="0" rx="4"/><ellipse id="a" cx="81.039" cy="81.034" rx="81.039" ry="81.034"/><ellipse id="b" cx="81.039" cy="81.034" rx="81.039" ry="81.034"/><mask id="g" width="162.078" height="162.069" x="0" y="0" fill="#fff" maskContentUnits="userSpaceOnUse" maskUnits="objectBoundingBox"><use xlink:href="#a"/></mask><mask id="h" width="162.078" height="162.069" x="0" y="0" fill="#fff" maskContentUnits="userSpaceOnUse" maskUnits="objectBoundingBox"><use xlink:href="#b"/></mask></defs><g fill="none" fill-rule="evenodd" transform="translate(20 10)"><use fill="#000" filter="url(#c)" xlink:href="#d"/><use fill="#FFF" xlink:href="#d"/><path fill="#FAFAFA" stroke="#E5E9EA" d="M16.208 16.207h230.286v202.586H16.208z"/><path fill="#E5E9EA" d="M16.208 117.5h230.286v1H16.208zm0 18.993h230.286v1H16.208zm0 18.992h230.286v1H16.208zm0 18.992h230.286v1H16.208zm0-132.947h230.286v1H16.208zm0-18.992h230.286v1H16.208zm0 37.985h230.286v1H16.208zm0 18.992h230.286v1H16.208zm0 18.993h230.286v1H16.208zm0 94.962h230.286v1H16.208zm0 18.992h230.286v1H16.208z"/><path fill="#242D52" d="M22.286 117.5h31.065v45.647a5 5 0 0 1-5 5H27.286a5 5 0 0 1-5-5z"/><path fill="#F3603C" d="M22.286 117.5h31.065v32.985a5 5 0 0 1-5 5H27.286a5 5 0 0 1-5-5zm47.272-.266h31.065V82.658a5 5 0 0 0-5-5H74.558a5 5 0 0 0-5 5z"/><path fill="#242D52" d="M69.558 117.234h31.065v51.99a5 5 0 0 1-5 5H74.558a5 5 0 0 1-5-5zm92.52.266h31.065V46.193a5 5 0 0 0-5-5h-21.065a5 5 0 0 0-5 5z"/><path fill="#F3603C" d="M162.078 117.5h31.065V65.27a5 5 0 0 0-5-5h-21.065a5 5 0 0 0-5 5z"/><path fill="#242D52" d="M209.351 117.5h31.065v58.477a5 5 0 0 1-5 5H214.35a5 5 0 0 1-5-5V117.5z"/><path fill="#F3603C" d="M209.351 117.5h31.065v45.782a5 5 0 0 1-5 5H214.35a5 5 0 0 1-5-5V117.5zm-93.87 0h31.065v90.216a5 5 0 0 1-5 5H120.48a5 5 0 0 1-5-5z"/><path fill="#242D52" d="M115.481 117.5h31.065v33.086a5 5 0 0 1-5 5H120.48a5 5 0 0 1-5-5z"/><g transform="translate(280)"><use fill="#000" filter="url(#e)" xlink:href="#f"/><use fill="#FFF" xlink:href="#f"/><g transform="translate(49.299 36.466)"><ellipse cx="81.039" cy="81.034" stroke="#FFF" stroke-width="40" rx="61.039" ry="61.034"/><use stroke="#F3603C" stroke-dasharray="502" stroke-width="80" mask="url(#g)" xlink:href="#a"/><use stroke="#242D52" stroke-dasharray="340" stroke-width="80" mask="url(#h)" xlink:href="#b"/></g></g><g transform="translate(140 250)"><use fill="#000" filter="url(#i)" xlink:href="#j"/><use fill="#FFF" xlink:href="#j"/><g transform="translate(16.208 140.46)"><rect width="106.026" height="78.333" fill="#F3603C" rx="4"/><path fill="#FFF" fill-rule="nonzero" d="M23.044 59.413v-3.907h3.897v-1.78h-3.897v-3.908h-1.781v3.907h-3.908v1.78h3.908v3.908zm12.264 2.038V47.345H33.15l-3.433 2.997v2.374l3.314-2.977V61.45zm6.437.198q.573 0 .984-.406.41-.405.41-.98 0-.573-.41-.983a1.34 1.34 0 0 0-.984-.41q-.563 0-.98.41a1.34 1.34 0 0 0-.415.984q0 .564.416.974.415.41.979.41zm8.584-.01q2.175 0 3.517-1.33 1.34-1.331 1.34-3.497 0-2.156-1.316-3.32-1.315-1.161-3.966-1.161H48.36l.307-2.918h5.876v-2.058H46.68l-.732 6.914h3.63q3.315 0 3.314 2.622 0 1.187-.697 1.914t-1.915.727q-1.058 0-1.805-.613-.747-.615-.747-1.84a5 5 0 0 1 .07-.712l-2.286.138q-.05.426-.05.712 0 1.375.683 2.399a4.2 4.2 0 0 0 1.771 1.523q1.089.5 2.414.5zm9.207-8.29a2.96 2.96 0 0 0 2.186-.91q.9-.92.9-2.205a3 3 0 0 0-.9-2.187 2.96 2.96 0 0 0-2.186-.91q-1.276 0-2.186.91a2.98 2.98 0 0 0-.91 2.187q0 1.295.905 2.205t2.191.91m1.088 8.112 7.46-14.136h-1.98l-7.438 14.136zm-1.088-9.684q-.633 0-1.088-.45a1.48 1.48 0 0 1-.455-1.093q0-.644.455-1.084a1.5 1.5 0 0 1 1.088-.44q.644 0 1.088.445t.445 1.079q0 .642-.44 1.093t-1.093.45m7.785 9.842q1.276 0 2.172-.91a3 3 0 0 0 .895-2.186q0-1.286-.9-2.191a2.95 2.95 0 0 0-2.167-.905 3 3 0 0 0-2.196.905 2.98 2.98 0 0 0-.91 2.191q0 1.286.905 2.191a3 3 0 0 0 2.201.905m0-1.563q-.652 0-1.098-.45a1.5 1.5 0 0 1-.445-1.083q0-.653.445-1.098a1.5 1.5 0 0 1 1.098-.445q.624 0 1.084.455t.46 1.088-.455 1.083-1.089.45"/></g><g transform="translate(137.766 140.46)"><rect width="106.026" height="78.333" fill="#FAFAFA" rx="4"/><path fill="#1E272E" fill-rule="nonzero" d="M22.104 61.639q1.404 0 2.522-.505a4.2 4.2 0 0 0 1.776-1.503q.658-.99.658-2.285 0-1.276-.653-2.226a4.1 4.1 0 0 0-1.77-1.444q.79-.465 1.246-1.212a3.14 3.14 0 0 0 .455-1.667q0-1.602-1.202-2.626t-3.032-1.024q-1.86 0-3.067 1.02-1.207 1.017-1.207 2.63 0 .921.465 1.667.465.747 1.276 1.212-1.137.484-1.785 1.434t-.648 2.236q0 1.295.658 2.285a4.15 4.15 0 0 0 1.78 1.498q1.123.51 2.528.51m0-8.665q-.91 0-1.533-.589a1.93 1.93 0 0 1-.624-1.459q0-.85.624-1.43.622-.578 1.533-.578.9 0 1.523.579.624.578.624 1.429 0 .86-.629 1.454a2.13 2.13 0 0 1-1.518.594m0 6.607q-1.157 0-1.92-.682-.76-.683-.761-1.82 0-1.118.762-1.79.761-.674 1.919-.673 1.137 0 1.9.672.76.674.761 1.79 0 1.13-.762 1.816-.761.687-1.9.687zM33.18 61.64q1.404 0 2.522-.505a4.2 4.2 0 0 0 1.776-1.503q.658-.99.658-2.285 0-1.276-.653-2.226a4.1 4.1 0 0 0-1.77-1.444q.79-.465 1.246-1.212a3.14 3.14 0 0 0 .455-1.667q0-1.602-1.202-2.626t-3.032-1.024q-1.86 0-3.067 1.02-1.206 1.017-1.207 2.63 0 .921.465 1.667.465.747 1.276 1.212-1.137.485-1.785 1.434-.648.95-.648 2.236 0 1.296.658 2.285a4.15 4.15 0 0 0 1.78 1.498q1.123.51 2.528.51m0-8.665q-.91 0-1.534-.589a1.93 1.93 0 0 1-.623-1.459q0-.85.623-1.43.624-.578 1.534-.578.9 0 1.523.579.624.578.623 1.429 0 .86-.628 1.454a2.13 2.13 0 0 1-1.518.594m0 6.607q-1.158 0-1.92-.682-.76-.683-.761-1.82 0-1.118.762-1.79.76-.674 1.919-.673 1.137 0 1.9.672.76.674.76 1.79 0 1.13-.76 1.816-.763.687-1.9.687m8.435 2.068q.574 0 .985-.406.41-.405.41-.98 0-.573-.41-.983a1.34 1.34 0 0 0-.985-.41q-.563 0-.979.41a1.34 1.34 0 0 0-.415.984q0 .563.415.974.416.41.98.41zm13.313-.198v-2.058h-6.51l4.146-4.293q.999-1.038 1.464-1.948a4.3 4.3 0 0 0 .465-1.989q0-1.879-1.257-2.957-1.256-1.08-3.234-1.079-2.108 0-3.344 1.178-1.236 1.176-1.237 3.373v.791l2.266.218v-1.039q0-1.375.623-2.003t1.701-.628q1.029 0 1.633.569.603.568.603 1.587 0 1.315-1.414 2.77l-5.64 5.787v1.721zm9.702 0v-2.76h1.939v-2.048h-1.94v-9.298H61.16l-5.431 9.289v2.057h6.628v2.76h2.275zm-2.275-4.808h-4.412l4.412-7.834zm8.129-3.294a2.96 2.96 0 0 0 2.186-.91q.9-.92.9-2.205a3 3 0 0 0-.9-2.187 2.96 2.96 0 0 0-2.186-.91q-1.276 0-2.187.91a2.98 2.98 0 0 0-.91 2.187q0 1.295.905 2.205.906.91 2.192.91m1.088 8.112 7.459-14.136h-1.979l-7.439 14.136zm-1.088-9.684q-.633 0-1.089-.45a1.48 1.48 0 0 1-.455-1.093q0-.644.455-1.084a1.5 1.5 0 0 1 1.089-.44q.642 0 1.088.445.445.445.445 1.079 0 .642-.44 1.093t-1.093.45m7.785 9.842q1.275 0 2.171-.91a3 3 0 0 0 .896-2.186q0-1.286-.9-2.191a2.95 2.95 0 0 0-2.167-.905q-1.286 0-2.196.905a2.98 2.98 0 0 0-.91 2.191q0 1.286.905 2.191a3 3 0 0 0 2.2.905zm0-1.563q-.653 0-1.098-.45a1.5 1.5 0 0 1-.445-1.083q0-.653.445-1.098a1.5 1.5 0 0 1 1.098-.445q.623 0 1.083.455t.46 1.088-.455 1.083-1.088.45"/></g><g transform="translate(16.208 16.207)"><rect width="227.584" height="108.046" fill="#FAFAFA" rx="4"/><path fill="#343A40" fill-rule="nonzero" d="M28.786 84.812q2.996 0 5.381-1.076 2.385-1.098 3.788-3.208t1.404-4.875q0-2.722-1.393-4.748-1.393-2.025-3.778-3.08 1.688-.993 2.66-2.586.97-1.593.97-3.556 0-3.418-2.564-5.602t-6.468-2.185q-3.968 0-6.542 2.174-2.575 2.174-2.575 5.613 0 1.963.992 3.556.991 1.593 2.722 2.585-2.427 1.035-3.81 3.06-1.38 2.025-1.381 4.77 0 2.763 1.403 4.874t3.799 3.197q2.395 1.087 5.392 1.087m0-18.486q-1.942 0-3.271-1.256-1.33-1.255-1.33-3.112 0-1.815 1.33-3.05 1.329-1.234 3.27-1.234 1.921 0 3.25 1.234 1.33 1.235 1.33 3.05 0 1.836-1.34 3.102t-3.24 1.266zm0 14.097q-2.47 0-4.094-1.457-1.626-1.456-1.625-3.882 0-2.385 1.625-3.82t4.094-1.435q2.426 0 4.052 1.435t1.625 3.82q0 2.405-1.625 3.872t-4.052 1.467m21.737 3.988 9.729-12.873q2.658-3.587 2.659-7.28 0-2.955-1.435-5.329a9.9 9.9 0 0 0-3.894-3.682q-2.46-1.308-5.455-1.308-2.934 0-5.392 1.297-2.46 1.299-3.926 3.714-1.467 2.417-1.445 5.434.021 2.955 1.403 5.244 1.383 2.29 3.556 3.472a9.66 9.66 0 0 0 4.685 1.182 9.3 9.3 0 0 0 1.9-.19l-8.02 10.319zm1.73-13.76q-2.7 0-4.421-1.698-1.72-1.698-1.741-4.463-.02-2.723 1.73-4.421 1.752-1.7 4.432-1.699 2.722 0 4.39 1.646 1.667 1.647 1.667 4.432 0 2.637-1.699 4.42-1.698 1.785-4.358 1.784zm17.664 14.182q1.224 0 2.1-.865a2.83 2.83 0 0 0 .876-2.09q0-1.222-.876-2.1a2.86 2.86 0 0 0-2.1-.875q-1.203 0-2.09.876-.885.876-.885 2.1 0 1.202.886 2.078.885.876 2.09.876zm14.224-.422 14.16-26.23v-3.863H77.389v4.369h15.448L78.612 84.41h5.53zm34.378 0v-5.888h4.137v-4.368h-4.137V54.318h-7.407L99.526 74.134v4.39h14.14v5.887zm-4.853-10.256h-9.413l9.413-16.713zm17.094-7.027q2.743 0 4.664-1.942 1.92-1.962 1.92-4.706 0-2.722-1.92-4.663t-4.664-1.942q-2.723 0-4.664 1.942-1.942 1.942-1.942 4.663 0 2.765 1.931 4.706t4.675 1.942m2.321 17.304 15.913-30.156h-4.221l-15.87 30.156zm-2.321-20.66q-1.35 0-2.322-.96a3.16 3.16 0 0 1-.97-2.332q0-1.371.97-2.31a3.22 3.22 0 0 1 2.322-.94q1.371 0 2.321.95t.95 2.3q0 1.372-.94 2.332-.938.96-2.331.96m16.609 20.998q2.722 0 4.632-1.942t1.91-4.663q0-2.744-1.92-4.675-1.922-1.93-4.622-1.93-2.744 0-4.686 1.93-1.941 1.932-1.941 4.675t1.93 4.674q1.932 1.93 4.697 1.93zm0-3.335q-1.394 0-2.343-.96a3.17 3.17 0 0 1-.95-2.31q0-1.394.95-2.343c.95-.949 1.414-.95 2.343-.95q1.329 0 2.31.971.982.97.982 2.322 0 1.35-.971 2.31-.97.96-2.321.96"/></g></g></g></svg>