<svg xmlns="http://www.w3.org/2000/svg" width="146" height="24"><g fill="#FFF" fill-rule="evenodd"><path fill="#fff" fill-rule="nonzero" d="M40.014 16.809V8.553q0-2.365 1.098-3.73 1.1-1.365 2.75-1.365 3.237 0 3.237 4.731v8.62h3.782v-9.58q0-3.622-1.503-5.417T45.084.017q-1.834 0-3.352.703a6.8 6.8 0 0 0-2.56 2.043h-.066Q37.636.017 34.184.017q-1.454 0-2.799.653a7 7 0 0 0-2.353 1.878h-.05V.265H25.2v16.527h3.782V8.553q0-2.365 1.115-3.73t2.849-1.365q3.285 0 3.286 4.731v8.62zm21.101.248q3.37 0 5.252-2.482h.05v2.217h3.616V.265h-3.782V2.25h-.066Q64.303.017 61.082.017a7.76 7.76 0 0 0-5.681 2.415q-1.057 1.125-1.668 2.73a9.6 9.6 0 0 0-.611 3.44q0 1.887.61 3.475.612 1.588 1.669 2.68a7.35 7.35 0 0 0 2.535 1.696 8.3 8.3 0 0 0 3.18.604zm.595-3.441q-2.098 0-3.419-1.398-1.32-1.398-1.321-3.599 0-2.333 1.362-3.747t3.394-1.414q2.014 0 3.345 1.48 1.33 1.482 1.33 3.681 0 2.2-1.363 3.599-1.363 1.398-3.328 1.398m27.112 3.193V7.064q0-3.59-1.61-5.319-1.61-1.728-4.45-1.728a7.4 7.4 0 0 0-3.056.645 6.96 6.96 0 0 0-2.477 1.87h-.05V.264h-3.782v16.527h3.782V8.487q0-2.382 1.164-3.706 1.165-1.323 3.113-1.323.892 0 1.528.231a2.8 2.8 0 0 1 1.115.753q.48.522.71 1.415.231.893.231 2.183v8.769zm10.218.248q3.368 0 5.252-2.482h.05v2.217h3.616V.265h-3.782V2.25h-.066Q102.227.017 99.007.017a7.76 7.76 0 0 0-5.682 2.415q-1.056 1.125-1.668 2.73a9.6 9.6 0 0 0-.61 3.44q0 1.887.61 3.475.612 1.588 1.668 2.68a7.35 7.35 0 0 0 2.536 1.696 8.3 8.3 0 0 0 3.179.604m.594-3.441q-2.097 0-3.418-1.398t-1.322-3.599q0-2.332 1.363-3.747 1.362-1.414 3.394-1.414 2.015 0 3.344 1.48 1.33 1.482 1.33 3.681 0 2.2-1.363 3.599-1.362 1.398-3.328 1.398m19.07 10.125q1.8 0 3.22-.422t2.387-1.175a6.4 6.4 0 0 0 1.602-1.844 8.1 8.1 0 0 0 .916-2.383q.282-1.29.281-2.829V.265h-3.782v1.737h-.066a7.1 7.1 0 0 0-2.353-1.49A7.6 7.6 0 0 0 118.142 0q-2.262 0-4.062 1.075-1.8 1.076-2.8 2.987-.999 1.91-.999 4.293 0 2.415 1.049 4.285t2.882 2.87 4.129 1.001q3.071 0 5.004-2.018h.066v1.753q0 1.755-1.288 2.912t-3.634 1.158q-1.602 0-2.816-.397t-2.799-1.24l-.892 3.341q1.388.827 3.122 1.274t3.6.447m.132-10.72q-2.048 0-3.377-1.3-1.33-1.298-1.33-3.482 0-2.1 1.305-3.425 1.305-1.323 3.402-1.323 1.998 0 3.328 1.307t1.33 3.391q0 2.101-1.297 3.466t-3.361 1.365zm19.086 4.036q2.313 0 4.071-.844 1.759-.843 2.882-2.283l-2.642-2.266q-1.552 1.952-4.113 1.952-1.815 0-3.08-1.01-1.263-1.008-1.627-2.762h12.024q.099-.596.099-1.506 0-2.398-.975-4.285a7.2 7.2 0 0 0-2.807-2.961Q139.92.017 137.526.017a8.2 8.2 0 0 0-3.188.62q-1.486.62-2.56 1.729-1.073 1.109-1.684 2.696-.61 1.59-.611 3.458 0 2.532 1.106 4.492t3.023 3.003q1.916 1.042 4.31 1.042m3.815-10.274h-8.257q.396-1.588 1.535-2.457 1.14-.868 2.709-.868 1.586 0 2.618.893 1.032.894 1.395 2.432"/><g fill="#F3603C"><path d="M2.786 10.286c1.538 0 2.785 1.279 2.785 2.857C5.571 14.72 4.324 16 2.786 16S0 14.72 0 13.143s1.247-2.857 2.786-2.857M2.786 0C4.324 0 5.57 1.28 5.57 2.857S4.323 5.714 2.785 5.714 0 4.435 0 2.857C0 1.28 1.247 0 2.786 0m10.028 0C14.353 0 15.6 1.28 15.6 2.857s-1.247 2.857-2.786 2.857-2.785-1.279-2.785-2.857C10.029 1.28 11.276 0 12.814 0"/><ellipse cx="12.814" cy="13.257" opacity=".5" rx="2.786" ry="2.857"/></g></g></svg>